<?xml version="1.0" encoding="UTF-8" standalone="no"?>
<!DOCTYPE svg PUBLIC "-//W3C//DTD SVG 1.1//EN" "http://www.w3.org/Graphics/SVG/1.1/DTD/svg11.dtd">
<svg width="100%" height="100%" viewBox="0 0 512 512" version="1.1" xmlns="http://www.w3.org/2000/svg" xmlns:xlink="http://www.w3.org/1999/xlink" xml:space="preserve" xmlns:serif="http://www.serif.com/" style="fill-rule:evenodd;clip-rule:evenodd;stroke-linejoin:round;stroke-miterlimit:2;">
    <g id="ChatGPT-Image-Feb-16--2026--02_46_00-PM.png" serif:id="ChatGPT Image Feb 16, 2026, 02_46_00 PM.png" transform="matrix(1,0,0,1,0.145607,16.339925)">
        <path d="M417.064,322.482C414.254,344.146 408.42,343.173 374.539,346.814C354.129,349.006 348.077,351.374 347.344,336.502C347.044,330.411 388.295,329.762 385.121,325.825C384.606,325.187 356.09,331.316 273.5,331.516C151.415,331.813 151.667,327.059 127.486,325.416C101.524,323.652 164.654,332.538 164.91,335.422C166.265,350.711 158.495,349.398 119.555,345.008C91.942,341.896 94.168,332.428 94.17,276.501C94.171,247.186 91.487,243.324 115.787,226.825C128.447,218.229 80.512,232.907 90.217,203.383C92.998,194.921 121.999,194.169 124.568,200.472C128.077,209.081 124.178,220.116 129.163,212.261C149.891,179.602 146.392,163.723 177.443,159.137C226.819,151.843 342.333,149.351 358.143,169.758C366.493,180.535 386.507,222.586 386.837,213.592C386.886,212.252 387.389,198.529 390.355,197.212C390.379,197.201 417.981,193.81 421.904,203.315C432.907,229.973 386.039,219.732 396.28,226.757C411.214,237.001 415.61,241.005 417.164,247.582C419.642,258.071 417.303,316.494 417.064,322.482Z" style="fill:rgb(39,38,33);"/>
        <path d="M219.218,143.654C218.002,145.715 195.909,145.424 173.458,149.276C149.802,153.333 147.671,161.187 138.237,175.329C136.325,178.195 118.457,161.642 103.441,159.875C95.993,158.999 39.797,152.387 35.277,95.524C32.789,64.215 50.353,90.742 79.877,114.02C91.997,123.577 117.584,99.184 118.44,83.498C119.183,69.877 76.398,46.327 76.08,39.524C75.708,31.554 131.987,22.367 160.044,69.771C171.748,89.544 159.448,99.963 219.218,143.654Z" style="fill:rgb(38,37,32);"/>
        <path d="M292.931,143.707C339.366,112.605 344.044,92.541 345.455,86.49C360.459,22.143 450.836,28.219 434.421,42.415C401.76,70.661 385.832,75.755 397.724,95.369C403.105,104.244 421.378,121.431 430.241,115.108C448.432,102.129 473.514,73.206 476.196,82.608C476.883,85.016 480.024,112.594 460.247,135.28C428.876,171.263 414.126,146.828 376.297,176.227C372.689,179.031 368.113,156.573 347.539,151.328C321.151,144.601 299.839,147.104 292.931,143.707Z" style="fill:rgb(38,37,31);"/>
        <path d="M486.907,395.501C480.906,456.763 418.414,455.342 395.945,425.156C356,371.493 341.95,367.22 312.961,343.063C310.244,340.799 339.541,339.51 339.914,342.434C342.463,362.427 352.849,359.624 388.513,355.617C414.485,352.698 419.269,350.482 425.844,332.671C426.913,329.777 427.181,334.187 459.625,351.26C487.902,366.141 486.804,394.631 486.907,395.501Z" style="fill:rgb(38,37,32);"/>
        <path d="M199.17,342.356C188.289,349.604 140.928,389.456 120.915,417.794C65.142,496.77 -21.827,390.55 55.251,350.01C78.961,337.54 84.972,330.094 86.164,333.606C88.027,339.092 84.722,355.947 151.512,358.184C178.633,359.092 168.26,343.239 172.734,340.941C173.796,340.396 173.802,340.72 187.515,341.079C193.696,341.241 194.22,338.502 199.17,342.356Z" style="fill:rgb(38,37,32);"/>
        <path d="M312.483,213.938C266.905,212.643 227.08,211.611 149.481,217.083C146.361,217.303 144.761,214.083 163.846,180.717C172.504,165.58 292.068,167.802 328.549,173.192C339.329,174.785 347.215,170.298 364.806,213.375C366.816,218.296 362.124,216.887 312.483,213.938Z" style="fill:rgb(253,253,253);"/>
        <path d="M102.817,401.589C98.06,414.263 99.091,415.725 87.245,422.021C86.349,422.497 61.621,430.017 50.678,410.402C29.557,372.542 89.35,345.099 104.393,392.525C104.785,393.761 102.996,400.875 102.817,401.589Z" style="fill:rgb(253,253,253);"/>
        <path d="M465.88,394.41C467.24,424.461 421.566,437.932 410.203,404.592C400.648,376.558 430.609,362.584 446.331,368.981C462.281,375.47 461.061,377.892 465.88,394.41Z" style="fill:rgb(253,253,253);"/>
        <path d="M320.874,265.506C320.669,267.698 321.343,275.456 317.499,275.476C307.526,275.529 194.323,276.128 192.839,275.074C192.017,274.489 189.645,262.322 193.48,262.268C203.622,262.125 317.611,260.517 320.259,262.77C320.43,262.915 320.259,262.77 320.874,265.506Z" style="fill:rgb(253,253,253);"/>
        <path d="M110.961,257.505C120.751,223.1 171.104,255.51 173.037,257.882C192.199,281.382 115.106,283.733 110.961,257.505Z" style="fill:rgb(253,253,253);"/>
        <path d="M377.448,243.077C379.071,243.035 392.345,242.694 397.193,247.781C426.068,278.07 314.519,287.488 339.89,257.817C346.462,250.131 374.3,243.794 377.448,243.077Z" style="fill:rgb(253,253,253);"/>
        <path d="M309.594,296.812C295.906,298.3 265.093,297.272 212.5,297.487C205.547,297.516 198.795,299.639 194.248,286.559C193.283,283.783 196.035,284.374 290.5,284.356C301.1,284.354 319.782,282.794 318.014,287.331C315.574,293.594 315.798,294.125 309.594,296.812Z" style="fill:rgb(253,253,253);"/>
        <path d="M379.417,149.958C347.029,138.171 350.091,101.55 354.084,109.829C366.88,136.361 369.537,134.553 386.363,148.614C388.851,150.694 379.981,150.002 379.417,149.958Z" style="fill:rgb(253,253,253);"/>
        <path d="M129.503,149.951C125.494,149.616 123.456,150.17 124.979,148.819C127.285,146.774 140.312,142.626 153.113,120.283C154.119,118.527 158.949,102.828 160.692,114.475C161.123,117.354 158.274,128.084 150.326,137.349C139.624,149.826 131.717,149.487 129.503,149.951Z" style="fill:rgb(252,253,252);"/>
    </g>
</svg>
